Coordinates
version=1
nRows=24
nColumns=19
inDegrees=yes

Units are S.I. units (second, meters, Newtons, ...)
If the header above contains a line with 'inDegrees', this indicates whether rotational values are in degrees (yes) or radians (no).

endheader
time	pelvis_obliquity	pelvis_rotation	pelvis_tilt	pelvis_to_ground_tx	pelvis_to_ground_ty	pelvis_to_ground_tz	left_hip_abduction	left_hip_rotation	left_hip_flexion	left_knee_flexion	left_ankle_flexion	left_subtalar_angle	right_hip_abduction	right_hip_rotation	right_hip_flexion	right_knee_flexion	right_ankle_flexion	right_subtalar_angle
      4.95000000	     85.39324354	      5.09282043	    -11.06752029	      0.84827362	     -0.61190078	      0.58384662	      6.63798551	    -14.58000834	     37.68394624	    -19.23585371	    -15.88413959	    -16.92486927	      7.52196956	     17.33641164	      5.57495268	    -12.91241436	    -12.65422496	    -10.40554689
      4.96000000	     86.52510345	      5.76501109	    -11.56514252	      0.85842618	     -0.61146124	      0.58364716	      5.65007356	    -15.14177526	     36.96435977	    -18.78663913	    -15.39215485	    -16.43805260	      6.36627211	     16.42057595	      7.06218544	    -15.60977813	    -13.36223514	    -10.19780892
      4.97000000	     87.73524215	      6.49827657	    -12.18177239	      0.86831542	     -0.61088948	      0.58373697	      4.61708637	    -15.68299870	     36.27923793	    -18.15487505	    -14.64802633	    -15.39044587	      5.10029428	     15.44468041	      8.79858982	    -18.43409520	    -14.10795400	     -9.40710955
      4.98000000	     88.96347052	      7.34517195	    -12.69729885	      0.87792578	     -0.61021045	      0.58403709	      3.57318608	    -16.32073054	     35.41711162	    -17.36507456	    -14.20171681	    -14.65541402	      3.83401219	     14.17499392	     10.56327518	    -21.40627782	    -14.54407299	     -9.18423749
      4.99000000	     90.14804275	      8.25333179	    -13.14524892	      0.88724460	     -0.60942323	      0.58453280	      2.54302030	    -16.92688231	     34.43690437	    -16.45864847	    -13.92678400	    -14.19695796	      2.61445865	     12.71988060	     12.35985954	    -24.45741744	    -14.90352963	     -9.20245631
      5.00000000	     91.28550001	      9.11805242	    -13.69994457	      0.89626931	     -0.60850356	      0.58528420	      1.57047881	    -17.46252786	     33.46642233	    -15.33314420	    -13.57530109	    -13.17568871	      1.39162944	     11.28792613	     14.33923581	    -27.50256824	    -15.00463030	     -8.62338385
      5.01000000	     92.30486279	     10.02202368	    -14.14902062	      0.90502773	     -0.60750092	      0.58621846	      0.71632896	    -18.09813790	     32.33116625	    -14.07583399	    -13.39393289	    -12.83030530	      0.30441416	      9.79110763	     16.25213874	    -30.47185415	    -15.09867238	     -8.78971961
      5.02000000	     93.19177198	     10.88246571	    -14.59566692	      0.91352394	     -0.60639694	      0.58731692	     -0.04234733	    -18.64873084	     31.16642710	    -12.73000968	    -13.29736909	    -12.47298793	     -0.68417829	      8.29873315	     18.22172574	    -33.34530780	    -15.02384295	     -8.91597955
      5.03000000	     93.93921874	     11.65837196	    -15.02554034	      0.92179372	     -0.60521554	      0.58857501	     -0.69974932	    -19.10976826	     29.94536098	    -11.27396561	    -13.35337700	    -12.06719752	     -1.56866546	      6.89619952	     20.22345800	    -36.06296501	    -14.52425923	     -9.01639988
      5.04000000	     94.48627613	     12.45740710	    -15.33367711	      0.92984806	     -0.60401816	      0.58988764	     -1.20782079	    -19.52984464	     28.67549860	     -9.89575019	    -13.33272283	    -11.86321928	     -2.24845090	      5.39858466	     22.15612319	    -38.60492978	    -14.20285298	     -9.29412698
      5.05000000	     94.88573348	     13.18282173	    -15.62361990	      0.93771475	     -0.60278664	      0.59127795	     -1.58119030	    -19.91100888	     27.41212400	     -8.50318743	    -13.41944496	    -11.70665472	     -2.80828627	      3.99012574	     24.12258277	    -40.93369898	    -13.60390245	     -9.67672986
      5.06000000	     95.13012593	     13.86084317	    -15.84694200	      0.94541526	     -0.60155138	      0.59267739	     -1.83163696	    -20.21989632	     26.16074506	     -7.19131187	    -13.58629585	    -11.63060174	     -3.22502636	      2.61459019	     26.08104268	    -43.04651062	    -12.81685309	    -10.14443016
      5.07000000	     95.24593155	     14.50947979	    -16.01667764	      0.95296566	     -0.60033354	      0.59405124	     -1.96503977	    -20.48214133	     24.95001398	     -5.97984293	    -13.82178737	    -11.63260689	     -3.51428551	      1.24169583	     28.03879069	    -44.92884012	    -11.87165640	    -10.67999857
      5.08000000	     95.25962255	     15.10856659	    -16.13981644	      0.96040701	     -0.59914843	      0.59536155	     -2.00796459	    -20.67061558	     23.78715241	     -4.87590848	    -14.00801284	    -11.63848773	     -3.69847372	     -0.09487012	     30.00056581	    -46.58720393	    -11.05298275	    -11.17683153
      5.09000000	     95.19183434	     15.70175061	    -16.21777016	      0.96774739	     -0.59800930	      0.59657105	     -1.94721460	    -20.88054234	     22.67931059	     -3.88906806	    -14.24493976	    -11.65191904	     -3.77990956	     -1.43747974	     31.95975470	    -48.02432255	    -10.09334167	    -11.72927757
      5.10000000	     95.05463657	     16.30245689	    -16.20086061	      0.97501386	     -0.59693961	      0.59762297	     -1.84141341	    -20.98756233	     21.61739740	     -3.10958697	    -14.58534843	    -11.72904645	     -3.76006433	     -2.80890538	     33.86481451	    -49.26664539	     -8.97331681	    -12.28094122
      5.11000000	     94.92717062	     16.84717016	    -16.18816981	      0.98223376	     -0.59591232	      0.59853186	     -1.69856404	    -21.16831515	     20.57716287	     -2.33391837	    -14.78912286	    -11.69870460	     -3.73733473	     -4.10211504	     35.80452993	    -50.33037948	     -8.13101899	    -12.72559527
      5.12000000	     94.80600195	     17.35702031	    -16.17715276	      0.98940861	     -0.59493663	      0.59928823	     -1.51925036	    -21.41475939	     19.56409281	     -1.57317355	    -14.86901297	    -11.56371430	     -3.70500308	     -5.29515403	     37.76486515	    -51.21111788	     -7.53346297	    -13.11114751
      5.13000000	     94.67873289	     17.89408280	    -16.04658809	      0.99657697	     -0.59404750	      0.59981662	     -1.36673158	    -21.57368293	     18.52570545	     -0.98605833	    -15.11096805	    -11.42980455	     -3.64028336	     -6.48991048	     39.62091373	    -51.95134197	     -6.59546225	    -13.61245877
      5.14000000	     94.61538119	     18.37829525	    -15.96125043	      1.00373194	     -0.59321473	      0.60016929	     -1.22300287	    -21.84583697	     17.49821820	     -0.34604301	    -15.14585988	    -11.24789712	     -3.64001003	     -7.54141540	     41.52152264	    -52.54291457	     -6.15672021	    -13.92048641
      5.15000000	     94.57935391	     18.86630823	    -15.80715683	      1.01090881	     -0.59245548	      0.60031943	     -1.11406406	    -22.12159330	     16.41329502	      0.24972743	    -15.23159714	    -11.03092309	     -3.67411466	     -8.49764891	     43.33500804	    -52.98297226	     -5.63270328	    -14.29182308
      5.16000000	     94.58920617	     19.33900321	    -15.61400850	      1.01811967	     -0.59176217	      0.60027124	     -1.05837153	    -22.38893932	     15.28080205	      0.82301002	    -15.32037390	    -10.80437195	     -3.78058831	     -9.32286717	     45.07277220	    -53.26541319	     -5.16735319	    -14.63075811
      5.17000000	     94.64582475	     19.79661204	    -15.39422094	      1.02538598	     -0.59113828	      0.60004355	     -1.05107209	    -22.66736376	     14.09373507	      1.40401975	    -15.38859176	    -10.57470070	     -3.97629459	     -9.99136777	     46.71978455	    -53.36592870	     -4.81249404	    -14.91171940
      5.18000000	     94.75483613	     20.24506938	    -15.14448594	      1.03272553	     -0.59058212	      0.59964058	     -1.10221003	    -22.96521130	     12.83882228	      1.99915170	    -15.46910925	    -10.33452818	     -4.28403813	    -10.49729098	     48.24033102	    -53.26318194	     -4.52238921	    -15.15441298
